<svg width="180" height="180" viewBox="0 0 180 180" fill="none" xmlns="http://www.w3.org/2000/svg">
  <rect width="180" height="180" rx="40" fill="#050816"/>
  <g stroke="#F8FAFC" stroke-width="8" stroke-linecap="round" stroke-linejoin="round">
    <path d="M46 96C46 71.6995 65.6995 52 90 52C114.301 52 134 71.6995 134 96V130" />
    <path d="M46 96V124C46 129.523 50.4772 134 56 134H62C67.5228 134 72 129.523 72 124V110C72 104.477 67.5228 100 62 100H56C50.4772 100 46 95.5228 46 90V96Z" />
    <path d="M134 96V124C134 129.523 129.523 134 124 134H118C112.477 134 108 129.523 108 124V110C108 104.477 112.477 100 118 100H124C129.523 100 134 95.5228 134 90V96Z" />
    <path d="M72 134H89" />
    <path d="M90 134H108" />
    <path d="M82 84L90 76L98 84" />
  </g>
</svg>